<?xml version="1.0" encoding="UTF-8"?>
<svg width="20px" height="20px" viewBox="0 0 20 20" version="1.1" xmlns="http://www.w3.org/2000/svg" xmlns:xlink="http://www.w3.org/1999/xlink">
    <!-- Generator: Sketch 52.5 (67469) - http://www.bohemiancoding.com/sketch -->
    <title>icon_equipment_list@2x</title>
    <desc>Created with Sketch.</desc>
    <defs>
        <linearGradient x1="50%" y1="0%" x2="50%" y2="100%" id="linearGradient-1">
            <stop stop-color="#3F95D2" offset="0%"></stop>
            <stop stop-color="#2875BF" offset="100%"></stop>
        </linearGradient>
    </defs>
    <g id="页面-1" stroke="none" stroke-width="1" fill="none" fill-rule="evenodd">
        <g id="1-2-2详情数据-状态" transform="translate(-30.000000, -331.000000)" fill="url(#linearGradient-1)">
            <g id="侧边菜单" transform="translate(0.000000, 62.000000)">
                <g id="分组-2-copy-3" transform="translate(0.000000, 248.000000)">
                    <g id="主页" transform="translate(30.000000, 21.000000)">
                        <g id="分组" transform="translate(4.000000, 2.000000)">
                            <path d="M10,2 C11.1045695,2 12,2.8954305 12,4 L12,14 C12,15.1045695 11.1045695,16 10,16 L2,16 C0.8954305,16 1.3527075e-16,15.1045695 0,14 L0,4 C-1.3527075e-16,2.8954305 0.8954305,2 2,2 L2,1 C2,0.44771525 2.44771525,1.01453063e-16 3,0 L9,0 C9.55228475,-1.01453063e-16 10,0.44771525 10,1 L10,2 Z M6,12.25 L3.48333333,12.25 L3.48333333,5 C3.48333333,4.58578644 3.1475469,4.25 2.73333333,4.25 C2.31911977,4.25 1.98333333,4.58578644 1.98333333,5 L1.98333333,13 C1.98333333,13.4142136 2.31911977,13.75 2.73333333,13.75 L6,13.75 C6.41421356,13.75 6.75,13.4142136 6.75,13 C6.75,12.5857864 6.41421356,12.25 6,12.25 Z" id="合并形状"></path>
                        </g>
                    </g>
                </g>
            </g>
        </g>
    </g>
</svg>