<?xml version="1.0" encoding="UTF-8"?>
<svg width="20px" height="20px" viewBox="0 0 20 20" version="1.1" xmlns="http://www.w3.org/2000/svg" xmlns:xlink="http://www.w3.org/1999/xlink">
    <!-- Generator: Sketch 52.5 (67469) - http://www.bohemiancoding.com/sketch -->
    <title>icon_data_manage@2x</title>
    <desc>Created with Sketch.</desc>
    <defs>
        <linearGradient x1="50%" y1="0%" x2="50%" y2="100%" id="linearGradient-1">
            <stop stop-color="#3F95D2" offset="0%"></stop>
            <stop stop-color="#2875BF" offset="100%"></stop>
        </linearGradient>
    </defs>
    <g id="页面-1" stroke="none" stroke-width="1" fill="none" fill-rule="evenodd">
        <g id="1-4-2数据管理-数据查询" transform="translate(-30.000000, -269.000000)">
            <g id="侧边菜单" transform="translate(-1.000000, 62.000000)">
                <g id="分组-2-copy-4" transform="translate(1.000000, 186.000000)">
                    <g id="主页" transform="translate(30.000000, 21.000000)">
                        <rect id="矩形" x="0" y="0" width="20" height="20"></rect>
                        <path d="M14.2976209,11.1942483 L14.2885952,15.9852721 C14.2875547,16.5375559 14.7344258,16.9861138 15.2867095,16.9871542 C15.2873375,16.9871554 15.2879654,16.987156 15.2885934,16.987156 L16.9987077,16.987156 C17.5509925,16.987156 17.9987077,16.5394407 17.9987077,15.987156 L17.9987077,11.2020385 C17.9987077,10.6511092 17.5531058,10.2039574 17.0021798,10.2020445 L15.3010912,10.1961382 C14.7488098,10.1942206 14.2995427,10.6403786 14.2976251,11.19266 C14.2976233,11.1931894 14.2976219,11.1937189 14.2976209,11.1942483 Z M8.15459028,4.00255983 L8.14270816,15.9871555 C8.14220275,16.5394401 8.5895081,16.9875648 9.14179262,16.9880703 C9.14209766,16.9880705 9.1424027,16.9880707 9.14270774,16.9880707 L10.8547077,16.987156 C11.4069925,16.987156 11.8547077,16.5394407 11.8547077,15.987156 L11.8547077,4.00937795 C11.8547077,3.45844865 11.4091058,3.01129686 10.8581798,3.00938398 L9.15806195,3.00348098 C8.60578053,3.0015634 8.15651347,3.44772144 8.15459589,4.00000286 C8.15459293,4.00085518 8.15459106,4.0017075 8.15459028,4.00255983 Z M2.01020899,8.11226944 L2.00000086,15.9893306 C1.99928624,16.5407652 2.44509616,16.9887059 2.99652793,16.9906205 L4.69573525,16.9965203 C5.24801667,16.9984379 5.69728373,16.5522799 5.69920131,15.9999985 C5.69920383,15.9992731 5.69920556,15.9985477 5.6992065,15.9978223 L5.70941463,8.12076114 C5.71012925,7.56932651 5.26431933,7.12138587 4.71288756,7.11947124 L3.01368024,7.1135714 C2.46139882,7.11165382 2.01213176,7.55781186 2.01021418,8.11009328 C2.01021166,8.11081866 2.01020993,8.11154405 2.01020899,8.11226944 Z" id="Shape" fill="url(#linearGradient-1)" transform="translate(9.999354, 10.000001) scale(-1, 1) translate(-9.999354, -10.000001) "></path>
                    </g>
                </g>
            </g>
        </g>
    </g>
</svg>